<svg xmlns="http://www.w3.org/2000/svg" width="20" height="20" viewBox="0 0 20 20">
  <g id="ios-pie" transform="translate(-2.25 -2.25)">
    <path id="Path_4084" data-name="Path 4084" d="M14.326,4.688v9.777a.354.354,0,0,1-.268.343l-8.433,2.17a.18.18,0,0,0-.121.241,9.291,9.291,0,1,0,9.01-12.705.177.177,0,0,0-.187.174Z" transform="translate(-1.184 -0.826)" fill="#FFF"/>
    <path id="Path_4085" data-name="Path 4085" d="M2.25,11.5a10.473,10.473,0,0,0,.679,3.62.175.175,0,0,0,.205.1L11.786,13a.4.4,0,0,0,.286-.366V2.428a.179.179,0,0,0-.178-.178C4.884,2.335,2.25,7.473,2.25,11.5Z" transform="translate(0 0)" fill="#FFF"/>
  </g>
</svg>
