<?xml version="1.0" encoding="UTF-8"?>
<svg width="329pt" height="329pt" viewBox="0 0 329.27 329" xmlns="http://www.w3.org/2000/svg">
<path  fill="#FFF" d="m194.8 164.77 128.21-128.21c8.3438-8.3398 8.3438-21.824 0-30.164-8.3398-8.3398-21.824-8.3398-30.164 0l-128.21 128.21-128.21-128.21c-8.3438-8.3398-21.824-8.3398-30.164 0-8.3438 8.3398-8.3438 21.824 0 30.164l128.21 128.21-128.21 128.21c-8.3438 8.3398-8.3438 21.824 0 30.164 4.1562 4.1602 9.6211 6.25 15.082 6.25 5.4609 0 10.922-2.0898 15.082-6.25l128.21-128.21 128.21 128.21c4.1602 4.1602 9.6211 6.25 15.082 6.25 5.4609 0 10.922-2.0898 15.082-6.25 8.3438-8.3398 8.3438-21.824 0-30.164z"/>
</svg>
