<svg width="75" height="75" viewBox="0 0 75 75" fill="none" xmlns="http://www.w3.org/2000/svg">
<path d="M0.300589 4.8824C0.402022 4.8824 0.499744 4.87622 0.598704 4.86756C1.74416 4.79458 2.77333 4.29978 3.53656 3.53656C4.29978 2.77457 4.79458 1.74539 4.86632 0.598704C4.87993 0.499744 4.8824 0.402022 4.8824 0.300589C4.87993 0.196682 4.87622 0.0977224 4.87003 0H0L0.00247398 4.26886L0 4.87003C0.0977224 4.87622 0.195445 4.87993 0.300589 4.8824Z" fill="black"/>
<path d="M0.601178 6.37174C2.16226 6.29876 3.56253 5.63326 4.5979 4.5979C5.63326 3.56253 6.29876 2.15979 6.3705 0.601178L8.7715 0.598704C8.69481 2.81787 7.76088 4.8255 6.29134 6.29257C4.8255 7.76212 2.81787 8.69605 0.598704 8.7715L0.601178 6.37174ZM0.598704 9.37392C2.98238 9.29722 5.1397 8.2965 6.71562 6.71686C8.2965 5.1397 9.29722 2.98239 9.37268 0.598704C9.37639 0.503455 9.37887 0.399548 9.37887 0.300589C9.38258 0.199155 9.37639 0.0977224 9.37021 0H5.77304C5.77922 0.0977224 5.7817 0.199155 5.7817 0.300589C5.7817 0.402022 5.77922 0.499744 5.77551 0.598704C5.70005 1.99156 5.10135 3.24586 4.17361 4.17361C3.24586 5.10135 1.99156 5.70005 0.598704 5.77551C0.499744 5.77922 0.402022 5.78293 0.300589 5.78293C0.199156 5.78293 0.0977224 5.77922 0 5.77304V9.37021C0.0977224 9.37639 0.199156 9.38258 0.300589 9.3801C0.398311 9.3801 0.503455 9.37639 0.598704 9.37392Z" fill="black"/>
<path d="M0.598704 10.8806C3.40049 10.7989 5.93137 9.62997 7.78067 7.78067C9.62997 5.93137 10.7977 3.40049 10.8806 0.598704C10.8806 0.499744 10.8806 0.399548 10.8806 0.300589C10.8806 0.199155 10.8806 0.0977224 10.8769 0H10.2782C10.2819 0.0977224 10.2819 0.199156 10.2819 0.298115C10.2819 0.399548 10.2819 0.503455 10.2757 0.598704C10.199 3.23349 9.09807 5.6147 7.35638 7.35638C5.6147 9.09807 3.23226 10.2002 0.598704 10.2757C0.503455 10.2819 0.398311 10.2819 0.296878 10.2819C0.199155 10.2819 0.0977224 10.2819 0 10.2794V10.8781C0.0977224 10.8806 0.199156 10.8806 0.300589 10.8806C0.398311 10.8806 0.499744 10.8806 0.598704 10.8806Z" fill="black"/>
<path d="M44.7803 0.63705L43.406 1.1269L43.4085 0.598704H44.7828L44.7803 0.63705ZM43.1042 1.23452L41.7299 1.7256V0.601178L43.1042 0.598704V1.23452ZM41.4293 1.83693L40.055 2.32802V0.598704H41.4293V1.83693ZM39.7544 2.43564L38.3826 2.92548L38.3801 0.598704H39.7544V2.43564ZM38.082 3.0331L36.7052 3.5279V0.598704H38.082V3.0331ZM35.0291 4.1266V0.601178L36.4034 0.598704V3.63552L35.0291 4.1266ZM34.7285 4.23422L33.3579 4.72407V0.598704H34.7322L34.7285 4.23422ZM33.0573 4.83292L31.6793 5.32896L31.6831 0.598704H33.0573V4.83292ZM31.3788 5.43039L30.0045 5.92519V0.598704H31.3788V5.43039ZM29.7063 6.03281L28.332 6.52389V0.601178H29.7063V6.03281ZM28.0315 6.63151L26.6534 7.12507V0.598704H28.0315V6.63151ZM26.3529 7.23269L24.9786 7.72377L24.9823 0.598704H26.3566L26.3529 7.23269ZM24.6804 7.83386L23.3061 8.32495V0.598704H24.6804V7.83386ZM23.0056 8.43257L21.6313 8.92365V0.598704L23.0056 0.601178V8.43257ZM21.327 9.03498L20.1964 9.43948L19.9564 9.52483V5.75696C20.4153 4.11052 20.6714 2.38121 20.6973 0.598704H21.327V9.03498ZM19.6558 4.4742C19.1932 6.62409 18.3755 8.65152 17.2746 10.4847C17.1954 10.6245 17.1088 10.7569 17.0235 10.8929C16.9356 11.0327 16.8429 11.1725 16.7489 11.3049L16.7451 11.311C16.0265 12.3823 15.2063 13.3793 14.291 14.291C13.3793 15.2039 12.381 16.0265 11.311 16.7451L11.3049 16.7489C11.1713 16.8441 11.0352 16.9356 10.8929 17.0247C10.7569 17.1101 10.6245 17.1954 10.4847 17.2746C8.65152 18.3767 6.6278 19.1932 4.4742 19.6558C3.88168 19.7857 3.28297 19.8834 2.6719 19.9564C1.99156 20.0393 1.30131 20.09 0.601178 20.0962L0.598704 14.2056H14.2056V0.598704L20.0949 0.601178C20.0887 1.30131 20.038 1.99156 19.9564 2.67314C19.8834 3.28421 19.7857 3.88291 19.6558 4.4742ZM19.6558 9.62998L19.396 9.72522C19.3329 9.85511 19.2686 9.98128 19.1993 10.1112C19.1325 10.2448 19.0596 10.3771 18.9903 10.507C18.0118 12.2932 16.7835 13.9236 15.3523 15.3523C13.9236 16.7835 12.2932 18.0118 10.507 18.9903C10.3771 19.0608 10.2435 19.1325 10.1112 19.1993C9.98128 19.2698 9.85387 19.3329 9.72399 19.396L9.62998 19.6558H6.74531C7.93901 19.2562 9.08817 18.7528 10.1743 18.1454C10.3078 18.0749 10.4402 17.9957 10.5701 17.9203C10.7062 17.8411 10.8422 17.762 10.9783 17.6766C12.3365 16.8367 13.5908 15.8459 14.719 14.719C15.8459 13.5908 16.8367 12.3402 17.6766 10.9758C17.762 10.8422 17.8411 10.7062 17.9203 10.5701C17.9957 10.4402 18.0749 10.3078 18.1454 10.1743C18.7528 9.08817 19.2562 7.9353 19.6558 6.74531V9.62998ZM9.43948 20.1976L9.03375 21.3282H0.598704V20.6973C2.38121 20.6726 4.11052 20.4153 5.75696 19.9564H9.52483L9.43948 20.1976ZM8.43257 23.0056H0.601178L0.598704 21.6313L8.92365 21.6288L8.43257 23.0056ZM7.83386 24.6817H0.598704V23.3074H8.32495L7.83386 24.6817ZM7.23269 26.3529L0.598704 26.3566V24.9823L7.72625 24.9786L7.23269 26.3529ZM6.63398 28.0315H0.598704V26.6534H7.12507L6.63398 28.0315ZM6.03281 29.7063H0.601178V28.332H6.52265L6.03281 29.7063ZM5.43039 31.3788H0.598704V30.0045H5.92395L5.43039 31.3788ZM4.83169 33.0536H0.598704V31.6793H5.32896L4.83169 33.0536ZM4.23298 34.7285L0.598704 34.7322V33.3579H4.72407L4.23298 34.7285ZM3.63552 36.4046H0.598704L0.601178 35.0303H4.12537L3.63552 36.4046ZM3.0331 38.0795L0.598704 38.0832V36.7052H3.5279L3.0331 38.0795ZM2.43811 39.7544H0.598704V38.3801L2.92548 38.3838L2.43811 39.7544ZM1.83693 41.4293H0.598704V40.055H2.32678L1.83693 41.4293ZM1.23452 43.1054H0.598704L0.601178 41.7311H1.7256L1.23452 43.1054ZM0.635813 44.7803L0.598704 44.7828V43.4085L1.1269 43.406L0.635813 44.7803ZM0.598704 12.3786C2.34905 12.3377 4.00538 11.9196 5.491 11.2071L5.49348 11.2034H11.2034V5.49471L11.2071 5.491C11.9221 4.00538 12.3365 2.34905 12.3786 0.598704H13.6032V13.6044H0.598704V12.3786ZM7.45411 10.032L8.02683 10.6047H6.59935C6.89375 10.4278 7.17579 10.2349 7.45411 10.032ZM8.10971 9.50628L9.20816 10.6047H8.45112L7.69532 9.84892C7.83758 9.73759 7.97612 9.62626 8.10971 9.50628ZM8.73068 8.94221L10.3932 10.6047H9.63245L8.33732 9.30959C8.47091 9.19332 8.60327 9.06962 8.73068 8.94221ZM9.30959 8.33732L10.6047 9.63245V10.3932L8.94221 8.73068C9.06962 8.60327 9.19208 8.47091 9.30959 8.33732ZM9.84769 7.69161L10.6047 8.45236V9.20816L9.50628 8.10971C9.62626 7.97364 9.73759 7.83757 9.84769 7.69161ZM10.6047 6.59935V8.02807L10.032 7.45411C10.2349 7.17578 10.4278 6.89375 10.6047 6.59935ZM45.0809 0H33.0573L31.474 0.00371097L31.3788 0H11.7762C11.7799 0.0915375 11.7799 0.183075 11.7799 0.275849V0.300589C11.7799 0.399548 11.7799 0.499744 11.7799 0.598704C11.7477 1.74787 11.5485 2.85621 11.2071 3.90147C11.0352 4.40492 10.836 4.8923 10.6047 5.36112C10.3202 5.94374 9.98128 6.5041 9.60152 7.02364C9.54462 7.10651 9.48401 7.18815 9.4234 7.26732C9.31331 7.40958 9.20198 7.55307 9.08199 7.68543C9.02138 7.76459 8.9521 7.84129 8.88531 7.91303C8.76779 8.05281 8.6478 8.1827 8.52163 8.30887C8.48947 8.34474 8.45112 8.38185 8.41649 8.41649C8.38185 8.45236 8.3435 8.48947 8.30887 8.52163C8.1827 8.6478 8.05281 8.76903 7.91303 8.88531C7.84005 8.9521 7.76459 9.02138 7.68543 9.08199C7.55183 9.20198 7.40958 9.31331 7.26732 9.42092C7.18815 9.48401 7.10528 9.54462 7.02364 9.60152C6.5041 9.98128 5.94622 10.3202 5.36112 10.6047C4.8923 10.836 4.40493 11.0364 3.90147 11.2071C2.85621 11.5485 1.75034 11.7489 0.598704 11.7799C0.499744 11.7799 0.398311 11.7799 0.300589 11.7799H0.274612C0.183075 11.7799 0.0915372 11.7799 0 11.7774V21.3307L0.00247398 21.6288V24.6817L0 24.9786L0.00247398 28.0315V31.474L0 33.0573L0.00247398 33.3579L0 36.4046L0.00247398 36.7052L0 38.2539V41.7311L0.00247398 43.1054L0 43.2576V75L0.598704 74.9963V46.6581L1.16525 45.0784L1.27286 44.7803L1.76395 43.406L1.87157 43.1054L2.36142 41.7311L2.47275 41.4293L2.96383 40.055L3.07145 39.7581L3.56253 38.3801L3.67015 38.0795L4.16371 36.7052L4.26886 36.4046L4.7587 35.0303L4.86632 34.7322L5.36112 33.3579L5.46874 33.0573L5.95982 31.6793L6.06744 31.3788L6.561 30.0045L6.66862 29.7063L7.1597 28.332L7.2698 28.0315L7.76088 26.6534L7.8685 26.3529L8.3633 24.9786L8.47091 24.6817L8.962 23.3074L9.06591 23.0056L9.55947 21.6288L9.66708 21.3307L10.1619 19.9564L10.2064 19.8265C12.271 18.775 14.1512 17.4008 15.7766 15.7766C17.4032 14.1524 18.775 12.271 19.8265 10.2064L19.9564 10.1619L21.3307 9.66832L21.6313 9.5607L23.0056 9.06591L23.3061 8.962L24.6804 8.47091L24.9786 8.35959L26.3529 7.86974L26.6534 7.76212L28.0315 7.26732L28.332 7.1597L29.7063 6.66862L30.0045 6.561L31.3788 6.06744L31.6793 5.95982L33.0573 5.46874L33.3579 5.36112L34.7322 4.86756L35.0291 4.75994L36.4034 4.26886L36.7052 4.16371L38.082 3.67015L38.3801 3.56253L39.7581 3.07145L40.055 2.96383L41.4293 2.47275L41.7299 2.36265L43.1042 1.87157L43.406 1.76395L44.7803 1.27286L45.0772 1.16525L46.6581 0.598704H74.9963L75 0H45.0809Z" fill="black"/>
</svg>
