<svg xmlns="http://www.w3.org/2000/svg" width="31.5" height="31.502" viewBox="0 0 31.5 31.502">
  <g id="newspaper" transform="translate(-2.25 -2.25)">
    <path id="Path_4105" data-name="Path 4105" d="M30.931,7.875H29.256a.006.006,0,0,0-.006.006V29.25a2.25,2.25,0,0,0,4.5,0V10.694a2.819,2.819,0,0,0-2.819-2.819Z" fill="#fff"/>
    <path id="Path_4106" data-name="Path 4106" d="M27,29.25V5.063A2.813,2.813,0,0,0,24.187,2.25H5.063A2.813,2.813,0,0,0,2.25,5.063v24.75a3.938,3.938,0,0,0,3.938,3.938H30.3a.08.08,0,0,0,.021-.158A4.508,4.508,0,0,1,27,29.25ZM6.75,9A1.125,1.125,0,0,1,7.875,7.875h4.5A1.125,1.125,0,0,1,13.5,9v4.5a1.125,1.125,0,0,1-1.125,1.125h-4.5A1.125,1.125,0,0,1,6.75,13.5ZM21.375,28.125H7.907a1.147,1.147,0,0,1-1.155-1.071,1.125,1.125,0,0,1,1.123-1.179H21.343A1.147,1.147,0,0,1,22.5,26.946a1.125,1.125,0,0,1-1.123,1.179Zm0-4.5H7.907a1.147,1.147,0,0,1-1.155-1.071,1.125,1.125,0,0,1,1.123-1.179H21.343A1.147,1.147,0,0,1,22.5,22.446a1.125,1.125,0,0,1-1.123,1.179Zm0-4.5H7.907a1.147,1.147,0,0,1-1.155-1.071,1.125,1.125,0,0,1,1.123-1.179H21.343A1.147,1.147,0,0,1,22.5,17.946a1.125,1.125,0,0,1-1.123,1.179Zm0-4.5H16.907a1.147,1.147,0,0,1-1.155-1.071,1.125,1.125,0,0,1,1.123-1.179h4.468A1.147,1.147,0,0,1,22.5,13.446a1.125,1.125,0,0,1-1.123,1.179Zm0-4.5H16.907a1.147,1.147,0,0,1-1.155-1.071,1.125,1.125,0,0,1,1.123-1.179h4.468A1.147,1.147,0,0,1,22.5,8.946a1.125,1.125,0,0,1-1.123,1.179Z" fill="#fff"/>
  </g>
</svg>
