<svg xmlns="http://www.w3.org/2000/svg" width="36" height="34.668" viewBox="0 0 36 34.668">
  <path id="pie-chart" d="M16,18.542,27.375,29.917A15.9,15.9,0,0,1,16,34.667a15.65,15.65,0,0,1-8.031-2.146A15.931,15.931,0,0,1,2.146,26.7,15.65,15.65,0,0,1,0,18.667a15.65,15.65,0,0,1,2.146-8.031A15.931,15.931,0,0,1,7.969,4.813,15.65,15.65,0,0,1,16,2.667Zm3.9.125H36a15.9,15.9,0,0,1-4.75,11.375ZM34.667,16h-16V0A15.65,15.65,0,0,1,26.7,2.146a15.931,15.931,0,0,1,5.823,5.823A15.65,15.65,0,0,1,34.667,16Z" fill="#fff"/>
</svg>
