<svg xmlns="http://www.w3.org/2000/svg" width="35.301" height="24.826" viewBox="0 0 35.301 24.826">
  <path id="road" d="M20.929,14.353v-.078l-.466-6.207a.653.653,0,0,0-.213-.436.629.629,0,0,0-.446-.184H16.2a.629.629,0,0,0-.446.184.653.653,0,0,0-.213.437l-.466,6.207v.078a.445.445,0,0,0,.155.388.593.593,0,0,0,.407.155h4.733a.593.593,0,0,0,.407-.155.445.445,0,0,0,.155-.388Zm14.722,9.058q0,1.416-.892,1.416H21.1a.567.567,0,0,0,.427-.184.544.544,0,0,0,.155-.436L21.3,19.241a.653.653,0,0,0-.213-.436.629.629,0,0,0-.446-.184H15.362a.629.629,0,0,0-.446.184.653.653,0,0,0-.213.436l-.388,4.966a.549.549,0,0,0,.155.436.565.565,0,0,0,.427.184H1.241q-.892,0-.892-1.416a5.846,5.846,0,0,1,.5-2.25L8.942.912a1.583,1.583,0,0,1,.5-.64A1.188,1.188,0,0,1,10.183,0h6.575a.629.629,0,0,0-.446.184A.653.653,0,0,0,16.1.621l-.291,3.724a.546.546,0,0,0,.155.446.584.584,0,0,0,.427.175h3.22a.581.581,0,0,0,.427-.175.543.543,0,0,0,.155-.446L19.9.621a.653.653,0,0,0-.213-.436A.634.634,0,0,0,19.241,0h6.575a1.181,1.181,0,0,1,.737.272,1.592,1.592,0,0,1,.5.64l8.088,20.25a5.846,5.846,0,0,1,.5,2.25Z" transform="translate(-0.35)" fill="#fff"/>
</svg>
