<svg width="512" height="512" viewBox="0 0 512 512" fill="none" xmlns="http://www.w3.org/2000/svg">
<path d="M481.883 210.823V180.705H451.765V120.47H421.648V90.3527H391.53V60.2348H331.294V30.1174H301.178V-0.000488281H210.824V30.1174H180.706V60.2348H120.471V90.3527H90.3545V120.47H60.2353V180.705H30.1173V210.823H0V301.176H30.1173V331.294H60.2353V391.529H90.3545V421.647H120.472V451.764H180.708V481.882H210.826V512H301.178V481.882H331.296V451.764H391.531V421.647H421.649V391.529H451.767V331.294H481.885V301.176H512.002V210.823H481.883Z" fill="black"/>
<path d="M361.414 150.587H331.296V180.705H361.414V150.587Z" fill="#D200D2"/>
<path d="M180.708 150.587H150.59V180.705H180.708V150.587Z" fill="#D200D2"/>
<path d="M361.414 331.293H331.296V361.411H361.414V331.293Z" fill="#D200D2"/>
<path d="M180.708 331.293H150.59V361.411H180.708V331.293Z" fill="#D200D2"/>
<path d="M180.706 120.47V150.588H331.295V120.47H180.706Z" fill="#FF00FF"/>
<path d="M180.706 361.412V391.529H331.295V361.412H180.706Z" fill="#FF00FF"/>
<path d="M120.471 331.294H150.589V180.705H120.471V331.294Z" fill="#FF00FF"/>
<path d="M361.412 180.705V331.294H391.53V180.705H361.412Z" fill="#FF00FF"/>
<path d="M180.706 60.2344V90.3523H331.295V60.2344H180.706Z" fill="#262632"/>
<path d="M180.706 421.647V451.765H331.295V421.647H180.706Z" fill="#262632"/>
<path d="M421.648 180.705V120.47H391.53V90.3525H331.295V120.47H361.412V150.588H391.53V180.706L421.648 180.705V331.294H451.766V180.705H421.648Z" fill="#262632"/>
<path d="M391.53 361.412H361.412V391.529H331.295V421.647H391.53V391.529H421.648V331.294H391.53V361.412Z" fill="#262632"/>
<path d="M180.706 391.529H150.589V361.412H120.471V331.294H90.3546V180.705H120.472V150.588H150.59V120.47H180.707V90.3525H120.472V120.47H90.3546V180.705H60.2354V331.294H90.3546V391.529H120.472V421.647H180.707L180.706 391.529Z" fill="#262632"/>
<path d="M288.527 212.633V190.944H223.473V212.633H201.788V321.056H223.473V299.372H245.158V321.056H266.842V299.372H288.527V321.056H310.211V212.633H288.527Z" fill="#FF00FF"/>
<path d="M180.706 90.3525H150.588V120.47H180.706V90.3525Z" fill="#38404F"/>
<path d="M120.471 150.588H90.3545V180.706H120.472V150.588H150.59V120.47H120.472L120.471 150.588Z" fill="#38404F"/>
<path d="M210.823 60.2344V90.3523H301.178V60.2344H210.823Z" fill="#38404F"/>
<path d="M210.823 421.647V451.765H301.178V421.647H210.823Z" fill="#38404F"/>
<path d="M361.412 150.588H391.53V120.47H361.412V90.3521H331.294V120.47H361.412V150.588Z" fill="#38404F"/>
<path d="M421.648 150.588H391.53V180.706H421.648V150.588Z" fill="#38404F"/>
<path d="M421.647 210.823V301.176H451.765V210.823H421.647Z" fill="#38404F"/>
<path d="M391.53 361.412H361.412V391.529H391.53V361.412H421.648V331.294H391.53V361.412Z" fill="#38404F"/>
<path d="M361.413 391.529H331.295V421.647H361.413V391.529Z" fill="#38404F"/>
<path d="M120.471 361.412V331.294H90.3545V361.412H120.472V391.529H150.59V361.412H120.471Z" fill="#38404F"/>
<path d="M180.706 391.529H150.588V421.647H180.706V391.529Z" fill="#38404F"/>
<path d="M90.3546 210.823H60.2354V301.176H90.3546V210.823Z" fill="#38404F"/>
</svg>
